<?xml version="1.0" standalone="no"?>
<!DOCTYPE svg PUBLIC "-//W3C//DTD SVG 20010904//EN"
 "http://www.w3.org/TR/2001/REC-SVG-20010904/DTD/svg10.dtd">
<svg version="1.0" xmlns="http://www.w3.org/2000/svg"
 width="500.000000pt" height="500.000000pt" viewBox="0 0 500.000000 500.000000"
 preserveAspectRatio="xMidYMid meet">

<g transform="translate(0.000000,500.000000) scale(0.100000,-0.100000)"
fill="#000000" stroke="none">
<path d="M4162 3974 c-16 -11 -22 -25 -22 -55 l0 -39 -73 0 c-102 0 -117 -12
-117 -96 0 -63 0 -64 -27 -64 -49 0 -726 59 -802 70 -118 17 -180 2 -371 -89
-91 -44 -286 -134 -435 -201 -420 -190 -447 -205 -496 -273 -24 -33 -29 -50
-29 -98 0 -55 2 -59 41 -92 22 -19 61 -40 86 -47 l46 -11 -48 -49 c-27 -27
-46 -52 -43 -56 9 -8 135 21 225 51 39 14 91 25 115 25 44 0 215 33 225 44 4
3 -16 16 -43 28 l-49 22 35 9 c19 6 102 32 184 58 162 53 170 54 247 38 l51
-11 -38 -18 c-66 -29 -88 -62 -92 -134 -4 -59 -2 -65 26 -98 18 -19 48 -40 70
-46 62 -19 552 -121 612 -128 87 -9 179 16 356 98 l159 75 115 -8 c63 -4 298
-8 523 -8 l407 -1 0 554 c0 496 -2 554 -16 560 -9 3 -192 6 -408 6 -338 0
-395 -2 -414 -16z m-22 -594 l0 -390 -40 0 -40 0 0 390 0 390 40 0 40 0 0
-390z m-1020 300 c63 -9 768 -70 810 -70 20 0 20 -4 20 -304 l0 -304 -37 -15
c-21 -8 -102 -45 -181 -82 -206 -97 -218 -98 -472 -46 -438 91 -434 90 -422
133 10 41 18 41 478 -8 59 -6 63 -5 79 19 23 36 13 58 -54 116 l-57 50 -235
46 c-344 67 -320 67 -501 7 -312 -104 -540 -149 -613 -121 -21 8 -40 19 -42
26 -2 6 11 28 29 49 36 41 49 47 483 244 143 65 319 146 390 180 127 61 199
88 240 89 11 0 49 -4 85 -9z"/>
<path d="M2400 2870 c-96 -22 -328 -71 -515 -111 -187 -39 -394 -83 -460 -98
l-120 -28 -3 -120 -3 -119 166 34 c91 19 169 31 173 27 11 -11 3 -568 -9 -575
-5 -4 -52 -15 -104 -25 -94 -19 -95 -19 -122 1 -22 16 -33 39 -50 105 -13 46
-21 69 -18 51 l5 -33 -43 3 c-39 3 -42 5 -45 36 -3 31 -2 32 37 32 26 0 41 4
41 13 -1 20 -28 123 -29 109 -1 -20 -45 -10 -49 11 -3 12 3 17 22 17 25 0 26
3 26 55 l0 55 -60 0 c-100 0 -100 1 -100 -253 l0 -213 -49 -21 c-30 -13 -54
-17 -62 -12 -8 5 -242 9 -521 9 l-508 0 0 -555 0 -555 424 0 c329 0 426 3 434
13 6 7 12 30 14 52 l3 40 80 3 c44 2 84 7 90 13 5 5 12 40 15 77 l5 67 275
-22 c151 -12 353 -29 448 -39 241 -23 262 -20 440 64 81 39 275 129 432 200
399 182 399 182 454 215 103 63 141 191 76 255 -16 17 -49 38 -73 47 l-44 16
-1 287 c-1 316 0 312 -64 312 l-28 0 0 145 0 145 -642 2 -643 3 500 5 c275 3
426 7 335 9 l-165 3 115 25 c63 14 131 29 151 34 l37 9 -19 88 c-10 48 -21 97
-24 110 -7 29 -14 28 -225 -18z m-580 -630 c0 -28 -3 -30 -35 -30 -38 0 -44
13 -18 42 26 29 53 23 53 -12z m80 -80 l0 -110 -35 0 -35 0 0 110 0 110 35 0
35 0 0 -110z m60 90 c29 -29 25 -40 -15 -40 -32 0 -35 2 -35 30 0 36 20 40 50
10z m-140 -125 c0 -67 -2 -75 -19 -75 -36 0 -51 27 -51 91 l0 59 35 0 35 0 0
-75z m157 16 c-3 -63 -18 -91 -48 -91 -17 0 -19 8 -19 75 l0 75 35 0 35 0 -3
-59z m970 -255 c22 -19 28 -32 28 -66 0 -55 -37 -90 -95 -90 -70 0 -113 82
-73 140 24 35 33 40 75 40 25 0 46 -8 65 -24z m-1297 -103 c5 -68 4 -72 -17
-78 -24 -6 -37 -35 -28 -64 3 -10 32 -41 65 -68 l59 -50 240 -47 c350 -67 302
-67 501 -2 315 104 537 146 609 116 60 -25 28 -82 -74 -133 -27 -14 -198 -92
-380 -175 -181 -82 -384 -176 -449 -208 -92 -45 -132 -59 -175 -62 -31 -2
-177 8 -326 22 -148 14 -348 31 -442 37 l-173 13 0 303 0 303 23 9 c13 5 81
37 153 71 112 55 136 63 184 62 30 -1 82 5 115 13 33 7 71 13 85 12 24 -2 25
-6 30 -74z m408 35 c15 -15 15 -61 0 -76 -8 -8 -50 -12 -125 -12 -109 0 -113
1 -129 25 -15 23 -15 27 0 50 16 24 20 25 129 25 75 0 117 -4 125 -12z m340 0
c15 -15 15 -61 0 -76 -8 -8 -50 -12 -124 -12 -119 0 -144 9 -144 50 0 41 25
50 144 50 74 0 116 -4 124 -12z m-1448 -504 l0 -395 -37 3 -38 3 -3 380 c-1
209 0 386 3 392 2 7 20 13 40 13 l35 0 0 -396z m1167 359 c-20 -2 -52 -2 -70
0 -17 2 0 4 38 4 39 0 53 -2 32 -4z m551 0 c-53 -2 -143 -2 -200 0 -57 1 -13
3 97 3 110 0 156 -2 103 -3z m-338 -129 c-25 -11 -49 -13 -85 -8 -98 13 -91
23 15 23 103 0 104 0 70 -15z"/>
</g>
</svg>
